<?xml version="1.0" standalone="no"?>
<!DOCTYPE svg PUBLIC "-//W3C//DTD SVG 20010904//EN"
 "http://www.w3.org/TR/2001/REC-SVG-20010904/DTD/svg10.dtd">
<svg version="1.0" xmlns="http://www.w3.org/2000/svg"
 width="1024.000000pt" height="1024.000000pt" viewBox="0 0 1024.000000 1024.000000"
 preserveAspectRatio="xMidYMid meet">

<g transform="translate(0.000000,1024.000000) scale(0.100000,-0.100000)"
fill="#1E90FF" stroke="none">
<path d="M4851 7689 c-828 -60 -1610 -393 -2297 -980 -158 -136 -464 -442
-599 -602 -268 -315 -569 -762 -611 -906 -29 -98 -8 -170 112 -372 344 -582
947 -1224 1500 -1597 521 -351 1096 -568 1727 -654 213 -28 604 -31 837 -5
617 69 1186 282 1732 648 537 360 1066 906 1465 1510 150 228 187 304 187 390
1 59 -4 75 -46 160 -95 190 -323 521 -535 775 -496 595 -1087 1054 -1704 1322
-548 238 -1196 352 -1768 311z m634 -334 c550 -64 1106 -275 1610 -610 388
-259 792 -641 1117 -1060 166 -214 358 -510 358 -552 0 -33 -30 -89 -123 -228
-495 -739 -1086 -1294 -1732 -1626 -354 -182 -649 -285 -1000 -349 -241 -43
-379 -53 -667 -47 -465 10 -839 90 -1271 273 -519 220 -956 534 -1413 1015
-231 243 -593 722 -675 893 -25 54 -27 62 -15 90 54 129 334 526 540 766 129
151 431 450 571 566 629 521 1323 819 2060 884 135 12 480 4 640 -15z"/>
<path d="M4927 7080 c-293 -26 -607 -131 -854 -283 -237 -147 -452 -354 -601
-577 l-49 -72 -222 1 c-255 2 -296 -5 -356 -67 -40 -41 -163 -248 -227 -383
l-41 -86 -68 -6 c-156 -13 -266 -123 -277 -278 -13 -187 123 -340 302 -340 37
0 90 7 119 17 68 23 147 101 170 168 22 63 22 168 0 228 l-16 46 35 54 c19 29
63 101 97 160 34 58 73 118 86 132 l24 26 226 0 c132 0 244 5 270 11 60 15
115 66 170 156 248 408 683 691 1163 759 155 22 413 14 557 -16 670 -141 1156
-631 1295 -1305 25 -121 49 -173 93 -203 56 -38 92 -42 350 -42 l249 0 44 -49
c56 -63 126 -91 223 -91 223 0 363 239 262 445 -51 102 -139 164 -248 173
-106 8 -209 -36 -263 -113 l-25 -36 -170 -1 c-94 -1 -176 1 -182 5 -6 4 -14
22 -18 40 -4 17 -22 79 -40 137 -240 747 -860 1276 -1619 1379 -113 16 -344
21 -459 11z m2812 -1666 c26 -21 31 -33 31 -69 0 -36 -5 -48 -31 -69 -43 -36
-91 -35 -130 3 -21 22 -29 39 -29 66 0 27 8 44 29 66 39 38 87 39 130 3z
m-5134 -56 c82 -98 -45 -218 -137 -130 -71 66 -1 185 95 164 9 -3 28 -18 42
-34z"/>
<path d="M4877 6490 c-510 -93 -919 -445 -1081 -931 -19 -57 -38 -123 -42
-146 l-7 -43 -201 0 c-110 0 -219 -5 -240 -10 -61 -14 -118 -59 -146 -115 -24
-48 -25 -58 -24 -225 0 -253 39 -439 140 -677 207 -487 631 -881 1150 -1069
349 -126 721 -153 1085 -79 545 111 1049 478 1325 965 29 52 58 101 64 108 7
8 46 12 125 12 l115 0 45 -35 c58 -44 112 -58 200 -53 158 11 262 119 273 284
7 106 -16 163 -92 240 -76 75 -143 100 -242 91 -106 -10 -182 -60 -230 -152
l-29 -55 -105 0 c-150 -1 -192 -5 -232 -24 -51 -25 -71 -50 -123 -156 -197
-401 -548 -707 -972 -849 -417 -139 -887 -105 -1283 94 -423 213 -738 590
-854 1024 -27 100 -53 307 -43 334 6 15 24 17 137 17 96 0 132 -3 134 -12 2
-7 9 -52 15 -100 46 -347 208 -642 480 -869 278 -233 598 -342 956 -325 356
16 677 159 935 417 193 193 315 416 372 682 29 136 31 398 5 531 -62 307 -201
556 -425 760 -153 139 -350 255 -534 315 -202 66 -457 86 -651 51z m358 -365
c36 -22 66 -56 113 -125 41 -59 113 -142 192 -220 69 -69 147 -155 173 -192
170 -239 205 -529 92 -775 -104 -226 -305 -396 -533 -449 -49 -12 -98 -15
-182 -11 -201 8 -350 75 -500 227 -122 124 -203 272 -232 426 -7 37 -18 69
-25 71 -6 2 -30 -5 -53 -17 -67 -34 -122 -14 -159 57 -18 36 -13 96 14 149 37
75 84 94 156 63 27 -12 55 -19 63 -16 8 3 21 28 30 54 34 103 104 200 262 363
86 90 173 191 199 232 98 153 166 201 276 196 53 -3 76 -10 114 -33z m2186
-1564 c39 -40 40 -93 2 -133 -69 -72 -196 2 -163 96 24 70 108 89 161 37z"/>
<path d="M5034 5812 c-47 -23 -80 -60 -95 -111 -7 -23 -9 -154 -7 -372 l3
-336 27 -40 c33 -50 81 -74 151 -74 86 -1 144 40 168 120 7 23 9 154 7 371 -3
377 -3 377 -79 427 -52 34 -120 40 -175 15z"/>
<path d="M5050 4759 c-62 -25 -100 -85 -100 -157 0 -122 129 -198 239 -140 68
35 86 66 86 146 0 51 -5 73 -20 94 -41 56 -139 83 -205 57z"/>
</g>

<!-- Red exclamation mark elements -->
<g transform="translate(0.000000,1024.000000) scale(0.100000,-0.100000)"
fill="#FF3B30" stroke="none">
<path d="M5034 5812 c-47 -23 -80 -60 -95 -111 -7 -23 -9 -154 -7 -372 l3
-336 27 -40 c33 -50 81 -74 151 -74 86 -1 144 40 168 120 7 23 9 154 7 371 -3
377 -3 377 -79 427 -52 34 -120 40 -175 15z"/>
<path d="M5050 4759 c-62 -25 -100 -85 -100 -157 0 -122 129 -198 239 -140 68
35 86 66 86 146 0 51 -5 73 -20 94 -41 56 -139 83 -205 57z"/>
</g>

</svg>
